<?xml version="1.0" encoding="UTF-8" standalone="no"?>
<svg width="375px" height="67px" viewBox="0 0 375 67" version="1.1" xmlns="http://www.w3.org/2000/svg" xmlns:xlink="http://www.w3.org/1999/xlink">
    <!-- Generator: Sketch 49.3 (51167) - http://www.bohemiancoding.com/sketch -->
    <title>Group 2</title>
    <desc>Created with Sketch.</desc>
    <defs></defs>
    <g id="Page-1" stroke="none" stroke-width="1" fill="none" fill-rule="evenodd" opacity="0.200000003">
        <g id="iPhone-8-Copy-2" transform="translate(0.000000, -600.000000)" fill="#FF5379">
            <g id="Group-2" transform="translate(-97.000000, 600.000000)">
                <path d="M85,45.2755794 C129.634836,15.0918598 173.423777,-1.66129102e-13 216.366824,0 C280.781394,2.444234e-13 359.872519,37.4596445 379.025985,41.367612 C398.179451,45.2755794 446.116344,60.5294422 491.705448,34.3872715 C522.098184,16.9591577 522.098184,34.6487501 491.705448,87.4560486 L85,90.5 L85,50.2351454 L85,45.2755794 Z" id="Path-3"></path>
                <path d="M0,45.2755794 C53.4682722,15.0918598 105.923244,-1.66129102e-13 157.364914,0 C234.52742,2.444234e-13 329.271039,37.4596445 352.215063,41.367612 C375.159086,45.2755794 432.582908,60.5294422 487.194303,34.3872715 C523.601899,16.9591577 523.601899,34.6487501 487.194303,87.4560486 L0,90.5 L0,50.2351454 L0,45.2755794 Z" id="Path-3" transform="translate(257.250000, 45.250000) scale(-1, 1) translate(-257.250000, -45.250000) "></path>
            </g>
        </g>
    </g>
</svg>